<svg xmlns="http://www.w3.org/2000/svg" width="83.804" height="73.076" viewBox="0 0 83.804 73.076">
  <g id="Group_149" data-name="Group 149" transform="translate(-243.5 -5.25)">
    <g id="Path_29" data-name="Path 29" transform="translate(256.981 16.795)" fill="#fff">
      <path d="M 42.59211730957031 49.26348114013672 L 29.07111167907715 39.81589508056641 L 28.78473091125488 39.61578369140625 L 28.49835014343262 39.81589508056641 L 14.97734451293945 49.26348114013672 L 16.32994079589844 32.72416305541992 L 16.35805130004883 32.38037490844727 L 16.04665184020996 32.23202514648438 L 1.162534713745117 25.14109420776367 L 16.04665184020996 18.05016326904297 L 16.35805130004883 17.90181350708008 L 16.32994079589844 17.55802345275879 L 14.97734451293945 1.018715977668762 L 25.13084030151367 8.113314628601074 L 28.49834060668945 10.46629428863525 L 28.78472137451172 10.66639423370361 L 29.07110023498535 10.46629428863525 L 42.59211730957031 1.018714547157288 L 41.23952102661133 17.55801391601563 L 41.21141052246094 17.90180397033691 L 41.52281188964844 18.0501537322998 L 56.40692901611328 25.14109420776367 L 41.52281188964844 32.23202514648438 L 41.21141052246094 32.38037490844727 L 41.23952102661133 32.72416305541992 L 42.59211730957031 49.26348114013672 Z" stroke="none"/>
      <path d="M 42.00714111328125 2.037418365478516 L 29.35749053955078 10.87615585327148 L 28.78472137451172 11.27636337280273 L 28.21195030212402 10.87615585327148 L 24.84445190429688 8.523162841796875 L 15.56231689453125 2.037425994873047 L 16.82826995849609 17.51726531982422 L 16.88450241088867 18.2048454284668 L 16.26169204711914 18.50155448913574 L 2.325057983398438 25.14109420776367 L 16.26169204711914 31.7806339263916 L 16.88450241088867 32.07734680175781 L 16.82826995849609 32.76492309570313 L 15.56231689453125 48.2447624206543 L 28.21196174621582 39.40603637695313 L 28.78473091125488 39.00582504272461 L 29.35750007629395 39.40603637695313 L 42.00714111328125 48.2447624206543 L 40.74119186401367 32.76492309570313 L 40.68495941162109 32.07734680175781 L 41.30776977539063 31.7806339263916 L 55.24440002441406 25.1410961151123 L 41.30776214599609 18.50154495239258 L 40.68495941162109 18.204833984375 L 40.74119186401367 17.51725387573242 L 42.00714111328125 2.037418365478516 M 43.17710113525391 -7.62939453125e-06 L 41.73786163330078 17.59876251220703 L 57.56946182250977 25.14109420776367 L 41.73786163330078 32.68341445922852 L 43.17710113525391 50.28218460083008 L 28.78473091125488 40.22575378417969 L 14.39236068725586 50.28218460083008 L 15.83160018920898 32.68341445922852 L 0 25.14109420776367 L 15.83160018920898 17.59877395629883 L 14.39236068725586 3.814697265625e-06 L 25.41722106933594 7.703445434570313 L 28.78472137451172 10.05643463134766 L 43.17710113525391 -7.62939453125e-06 Z" stroke="none" fill="#0dcaf0"/>
    </g>
    <path id="Path_26" data-name="Path 26" d="M0,0H83.8" transform="translate(243.5 41.936)" fill="#fff" stroke="#0dcaf0" stroke-width="1"/>
    <path id="Path_27" data-name="Path 27" d="M0,0H83.8" transform="translate(264.633 5.5) rotate(60)" fill="#fff" stroke="#0dcaf0" stroke-width="1"/>
    <path id="Path_28" data-name="Path 28" d="M0,0H83.8" transform="translate(264.633 78.076) rotate(-60)" fill="#fff" stroke="#0dcaf0" stroke-width="1"/>
    <g id="Group_118" data-name="Group 118" transform="translate(249.569 39.144)">
      <path id="Path_30" data-name="Path 30" d="M594.828,162.668l.729.729.729.729,1.458,1.458-2.917,2.917" transform="translate(-594.828 -162.668)" fill="none" stroke="#0dcaf0" stroke-width="1"/>
    </g>
    <g id="Group_119" data-name="Group 119" transform="translate(319.527 39.144)">
      <path id="Path_30-2" data-name="Path 30" d="M597.745,162.668l-.729.729-.729.729-1.458,1.458,2.917,2.917" transform="translate(-594.828 -162.668)" fill="none" stroke="#0dcaf0" stroke-width="1"/>
    </g>
    <g id="Group_120" data-name="Group 120" transform="translate(266.489 14.738) rotate(-115)">
      <path id="Path_30-3" data-name="Path 30" d="M2.917,0,2.188.729l-.729.729L0,2.917,2.917,5.834" fill="none" stroke="#0dcaf0" stroke-width="1"/>
    </g>
    <g id="Group_121" data-name="Group 121" transform="translate(305.523 70.113) rotate(65)">
      <path id="Path_30-4" data-name="Path 30" d="M2.917,0,2.188.729l-.729.729L0,2.917,2.917,5.834" transform="translate(0 0)" fill="none" stroke="#0dcaf0" stroke-width="1"/>
    </g>
    <g id="Group_122" data-name="Group 122" transform="translate(298.778 13.001) rotate(-65)">
      <path id="Path_30-5" data-name="Path 30" d="M2.917,5.834,2.188,5.1l-.729-.729L0,2.917,2.917,0" transform="translate(0 0)" fill="none" stroke="#0dcaf0" stroke-width="1"/>
    </g>
    <g id="Group_123" data-name="Group 123" transform="translate(271.777 71.121) rotate(115)">
      <path id="Path_30-6" data-name="Path 30" d="M2.917,5.834,2.188,5.1l-.729-.729L0,2.917,2.917,0" transform="translate(0 0)" fill="none" stroke="#0dcaf0" stroke-width="1"/>
    </g>
  </g>
</svg>
